<?xml version="1.0" encoding="utf-8"?>
<!-- Generator: Adobe Illustrator 24.0.2, SVG Export Plug-In . SVG Version: 6.00 Build 0)  -->
<svg version="1.1" id="Layer_1" xmlns="http://www.w3.org/2000/svg" xmlns:xlink="http://www.w3.org/1999/xlink" x="0px" y="0px"
	 viewBox="0 0 1819.52 341.38" enable-background="new 0 0 1819.52 341.38" xml:space="preserve">
<g>
	<path fill="#87dd01" enable-background="new    " d="M560.21,54.68c-53.7,0.67-51.95,45.18-53.2,86.25
		c-3.42,35.61-8.44,71.29-15.33,106.42c-8.23,38.72-29.94,82.2-72.56,90.14c-46.79,4.4-93.18-18.85-105.97-65.89
		c-7.56-21.72-29.81-271.34-77.25-205.45c-30.95,60.28-22.3,131.33-41.1,194.93c-18.32,61.08-91.05,103.04-148.39,64.44
		c-5.94-3.76-9.62-9.57-13.33-15.26C-4.48,245.45-0.21,164.41,0.51,89.88C4.46,55.21-4.3-10.01,50.05,1.98
		c14.86,3.75,24.24,18.09,23.33,36.29c-0.71,32.97-24.76,271.06,33.49,248.25c65.61-33.77,19.45-253.78,121.68-282.73
		c103.77-25.17,120.1,109.81,130.29,183.18c6.28,31.74,6.24,68.93,28.19,94.64c30.45,25.3,40.23-27.56,41.91-48.95
		c3.02-32.22,4.47-64.5,7.58-96.68c0.54-49.61,13.88-95.53,61.82-118.31C521.18,5.82,545.96,1.22,571.4,0.98
		c49.6,1.75,102.22-4.5,150.38,2.18c25.97,32.14,26.56,16.6-0.12,49.31C669.58,58.72,613.59,52.61,560.21,54.68z M898.02,308.11
		c-0.94-18.41-21.44-24.19-36.92-23.92c-67.02-1.66-134.81,3.44-201.48-2.05c-43.65-8.08-45.32-75.16-3.03-85.24
		c62.11-7.23,125.84,1.55,188.27-6.52c14.39-2.17,38.05-3.93,38.9-22.68c0.1-7.69-3.91-12.79-10.52-16.13
		c-22.64-9.55-48.08-8.71-72.18-10.02c-46.5-2.39-93.3,0.83-139.68-2.1c-26.87-5.07-6.23-33.41-26.93-41.03
		c-22.51-8.71-58.54-3.89-65.51,22.71c-8.9,59.94-36.39,197.02,44.34,214.69c51.17,8.6,91.12,4.42,149.89,5.23
		c26.63-0.81,62.72-1.84,98.8-3.06C878.91,337.83,900.18,327.96,898.02,308.11z M763.02,32.13c-6.78,7.1-13.14,14.58-20.24,22.55
		c23.67,0,46.41-0.04,69.14,0.06c2.06,0.01,2.92-1.19,3.99-2.41c6.3-7.22,12.5-14.53,18.95-21.61c2.15-2.36,1.95-3.79-0.13-6.06
		c-7.07-5.7-16.63-24.04-24.97-23.94c-22.69,0.26-43.85-0.01-67.02,0.08c7.16,8.63,13.59,16.71,20.42,24.44
		C765.61,28.01,765.58,29.45,763.02,32.13z M858.2,31.12c-6.97,7.48-13.74,15.16-21.3,23.56c9.84-1.14,29.82,2.58,35.8-2.03
		c6.81-7.26,13.63-14.51,20.62-21.59c1.82-1.84,1.79-2.92,0.2-4.86C865.89-8.11,881.06,2.29,836.88,0.8
		c7.58,9.05,14.4,17.35,21.41,25.49C859.96,28.21,859.94,29.25,858.2,31.12z"/>
	<path fill="#ffffff" enable-background="new    " d="M1818.95,227.57c-2.73-10.5-13.44-19.25-26.1-19.6
		c-19.95-0.54-39.94-0.61-59.88-0.01c-26.37,0.31-28.78,27.56-33.05,47.32c-8.04,41.15,44.33,32.5,70.19,33.16
		c-6.98,31.09-0.17,19.54-39.66,21.61c-1.28,0-2.4,0.1-2.97-1.78c-2.64-12.78-15.25-10.63-25.35-10.68
		c-10.48,0-10.17,0.07-12.73,10.35c-8.45,43.63,62.45,30.71,88.26,30.55c25.66-1.16,25.58-30.39,30.78-49.63
		c4.75-17.56-13.8-30.54-29.66-29.99c-13.62-0.11-27.23-0.03-41.19-0.03c2.08-4.76,2.6-22.18,7.43-21.99
		c11.82,0.06,23.63,0.04,35.44,0.02c1.56,0,2.09,0.33,2.33,2.18c0.96,15.61,19.73,9.27,30.25,10.47c1.3,0,2.88,0.35,3.23-1.47
		C1817.6,241.28,1820.82,234.76,1818.95,227.57z M1052.26,212.55c-17.91-9.57-52.64-3.26-73.93-4.64
		c-11.64,0.29-25.6,8.26-27.97,23.28c-4.54,24.77-17.87,48.41,17.85,56.46c14.08,1.72,28.25,0.62,42.37,0.67
		c4.25,0.01,4.62,1.28,3.6,4.8c-1.29,4.45-2.29,9-3.16,13.56c-0.44,2.3-1.17,3.47-3.79,3.43c-4.97-1.08-35.71,2.33-34.5-2.24
		c-3.16-15.21-22.19-9.06-33.34-10.26c-1.06,0-2.41-0.39-2.74,1.33c-6.66,16.64-1.89,36.41,19.06,39.36
		c22.16,2.53,44.54,2.23,66.69,0.28c13.7-1.21,22.87-9.54,25.31-24.13c1.42-8.49,3.92-16.79,5.82-25.21
		c4.83-17.7-13.71-30.91-29.84-30.39c-13.46-0.06-26.92-0.02-41.09-0.02c7.53-31.77-0.26-19.71,42.5-21.98
		c6.28,0.33-0.84,12.58,14.19,12.65c3.65,0.15,7.32,0.03,10.98,0.03c10.78,0,10.78,0,13.17-10.33
		C1066.17,227.3,1062.65,218.89,1052.26,212.55z M1485.44,209.89c-18.86-4.15-38.14-3.1-57.13-1.42
		c-22.42,0.92-33.03,19.84-36.02,40.9c10.16-10.03,21.64-12.83,33.93-12.39c13.81,2.62,56.47-8.42,54.84,13.33
		c-0.4,5.69-3.65,8.39-11.3,8.46c-17.8,0.16-35.6,0.01-53.4,0.1c-13.59-0.66-27.75,4.59-30.44,19.43
		c-3.53,15.54-7.21,31.04-10.72,46.58c-5.76,15.45-3.72,16.43,12.1,14.57c26.23-0.12,29.93-26.93,33.79-47.15
		c1.23-7.16,11.87-2.06,17.01-3.78c3.02-0.25,3.99,1.1,4.77,3.62c11.06,36.86,12.66,50.03,55.79,47.37
		c-4.98-16.14-11.39-31.64-17.06-47.54c-1.17-3.13-1.54-4.81,2.76-5.63C1529.85,276.98,1531.2,218.71,1485.44,209.89z
		 M1185.1,210.79c-8.97-2.91-18.27-3.32-27.61-3.01c-33.19-1.6-63.8-0.55-68.46,39.74c9.12-7.24,19.35-10.37,30.7-10.35
		c15.9,0.45,32-0.87,47.81,0.63c12.92,1.84,13.95,22.03-1.37,20.96c-91.56,0.59-77.12-11.2-97.63,77.92
		c-0.47,2.02-0.33,3.13,2.19,3.01c18.47,1.47,37.94-4.02,41.51-24.71c1.71-7.6,3.67-15.15,5.13-22.8c0.56-2.94,1.66-3.69,4.54-3.65
		c25.97-1.25,54.94,5.56,77.5-10.72C1227.5,258.62,1216.38,218.03,1185.1,210.79z M1686.47,207.53
		c-36.75,0.22-73.51,0.05-110.26,0.07c-15.38-1-33.58,9.27-32.88,25.04c-0.06,3.57,0.99,4.38,4.43,4.33
		c13.8-0.2,27.61,0.12,41.41-0.2c4.34-0.1,4.61,1.38,3.65,4.8c-7.38,31.13-14.29,62.39-21.67,93.53c-2.73,7.86,9.65,3.22,13.9,4.39
		c29.71-0.57,30.37-30.32,35.57-51.84c3.5-15.36,7.11-30.69,10.46-46.09c0.82-3.77,2.42-4.99,6.34-4.79
		c7.46,0.38,14.96,0.02,22.45,0.14c14.55,0.13,30.81-8.78,31.03-25.08C1690.94,208.26,1689.89,207.49,1686.47,207.53z
		 M1358.38,214.18c-16.57-12.42-66.8-4.35-89.89-6.31c-13.21,0.16-25.69,9.19-28.19,19.95c-6.42,27.61-12.67,55.27-18.93,82.91
		c-1.53,6.77,0.18,12.81,4.75,18.02c14.78,16.77,39,9.4,58.67,10.93c0-0.05,0-0.1,0-0.16c22.02-0.67,57.82,6.6,64.29-21.48
		c6.27-26.63,12.37-53.29,18.53-79.94C1369.92,228.05,1366.43,220.19,1358.38,214.18z M1259.94,310.4
		c5.48-23.74,10.83-46.68,16-69.66c0.64-2.86,1.78-3.63,4.66-3.6c14.81,0.16,29.62,0.19,44.42-0.01c3.73-0.05,4.05,1.14,3.3,4.33
		c-5.12,21.64-10.11,43.31-15.07,64.99c-0.51,2.24-0.73,4.02-3.84,4C1293.11,310.33,1276.82,310.4,1259.94,310.4z"/>
</g>
</svg>
